<svg xmlns="http://www.w3.org/2000/svg" version="1.1" xmlns:xlink="http://www.w3.org/1999/xlink" width="200" height="200"><svg xmlns="http://www.w3.org/2000/svg" version="1.1" xmlns:xlink="http://www.w3.org/1999/xlink" viewBox="0 0 200 200"><rect width="200" height="200" fill="url('#gradient')"></rect><defs><linearGradient id="SvgjsLinearGradient1001" gradientTransform="rotate(45 0.5 0.5)"><stop offset="0%" stop-color="#10b981"></stop><stop offset="100%" stop-color="#10b981"></stop></linearGradient></defs><g><g fill="#1a56db" transform="matrix(5.0168753402286335,0,0,5.0168753402286335,4.62552555131731,135.67424010244088)" stroke="#0e5278" stroke-width="0.2"><path d="M8.87 0L6.36-5.02L4.50-5.02L4.50 0L1.07 0L1.07-14.22L6.67-14.22Q9.20-14.22 10.63-13.10Q12.05-11.97 12.05-9.92L12.05-9.92Q12.05-8.44 11.45-7.46Q10.85-6.48 9.57-5.88L9.57-5.88L12.54-0.15L12.54 0L8.87 0ZM4.50-11.57L4.50-7.67L6.67-7.67Q7.65-7.67 8.14-8.18Q8.63-8.69 8.63-9.61Q8.63-10.53 8.13-11.05Q7.64-11.57 6.67-11.57L6.67-11.57L4.50-11.57ZM22.94-8.57L22.94-6.03L17.55-6.03L17.55-2.64L23.92-2.64L23.92 0L14.12 0L14.12-14.22L23.94-14.22L23.94-11.57L17.55-11.57L17.55-8.57L22.94-8.57ZM36.95-7.60L36.95-1.76Q36.16-0.88 34.64-0.34Q33.12 0.20 31.30 0.20L31.30 0.20Q28.51 0.20 26.84-1.51Q25.17-3.22 25.05-6.27L25.05-6.27L25.04-7.50Q25.04-9.60 25.78-11.17Q26.52-12.73 27.91-13.58Q29.29-14.42 31.10-14.42L31.10-14.42Q33.76-14.42 35.23-13.21Q36.70-11.99 36.94-9.58L36.94-9.58L33.64-9.58Q33.47-10.77 32.88-11.28Q32.29-11.79 31.22-11.79L31.22-11.79Q29.93-11.79 29.23-10.69Q28.53-9.60 28.52-7.57L28.52-7.57L28.52-6.71Q28.52-4.58 29.24-3.51Q29.97-2.44 31.53-2.44L31.53-2.44Q32.87-2.44 33.53-3.04L33.53-3.04L33.53-5.24L31.14-5.24L31.14-7.60L36.95-7.60Z"></path></g></g></svg><style>@media (prefers-color-scheme: light) { :root { filter: none; } }
@media (prefers-color-scheme: dark) { :root { filter: none; } }
</style></svg>